<?xml version="1.0" encoding="UTF-8" standalone="no"?>
<!DOCTYPE svg PUBLIC "-//W3C//DTD SVG 1.1//EN" "http://www.w3.org/Graphics/SVG/1.1/DTD/svg11.dtd">
<svg width="100%" height="100%" viewBox="0 0 2363 2363" version="1.1" xmlns="http://www.w3.org/2000/svg" xmlns:xlink="http://www.w3.org/1999/xlink" xml:space="preserve" xmlns:serif="http://www.serif.com/" style="fill-rule:evenodd;clip-rule:evenodd;stroke-linejoin:round;stroke-miterlimit:2;">
    <g transform="matrix(12.777051,0,0,12.777051,-2429.658038,-2179.513567)">
        <g transform="matrix(175.065566,0,0,175.065566,216.803791,324.323754)">
            <path d="M0.366,0.015C0.598,-0.013 0.712,-0.152 0.712,-0.364C0.712,-0.558 0.576,-0.715 0.385,-0.715C0.154,-0.687 0.04,-0.548 0.04,-0.336C0.04,-0.142 0.176,0.015 0.366,0.015ZM0.397,-0.003C0.238,-0.003 0.12,-0.157 0.12,-0.363C0.12,-0.559 0.211,-0.697 0.355,-0.697C0.514,-0.697 0.632,-0.543 0.632,-0.337C0.632,-0.141 0.541,-0.003 0.397,-0.003Z" style="fill-rule:nonzero;"/>
        </g>
    </g>
</svg>
